<?xml version="1.0" encoding="UTF-8"?>
<svg xmlns="http://www.w3.org/2000/svg" width="200" height="200" viewBox="0 0 200 200">
  <rect width="200" height="200" fill="white"/>
  
  <!-- Simulated QR Code pattern -->
  <!-- Outer frame -->
  <rect x="25" y="25" width="150" height="150" fill="none" stroke="#000" stroke-width="2"/>
  
  <!-- Position detection patterns (3 corners) -->
  <!-- Top-left -->
  <rect x="40" y="40" width="30" height="30" fill="#000"/>
  <rect x="45" y="45" width="20" height="20" fill="#fff"/>
  <rect x="50" y="50" width="10" height="10" fill="#000"/>
  
  <!-- Top-right -->
  <rect x="130" y="40" width="30" height="30" fill="#000"/>
  <rect x="135" y="45" width="20" height="20" fill="#fff"/>
  <rect x="140" y="50" width="10" height="10" fill="#000"/>
  
  <!-- Bottom-left -->
  <rect x="40" y="130" width="30" height="30" fill="#000"/>
  <rect x="45" y="135" width="20" height="20" fill="#fff"/>
  <rect x="50" y="140" width="10" height="10" fill="#000"/>
  
  <!-- QR Code data pattern (simplified representation) -->
  <g fill="#000">
    <!-- Row 1 -->
    <rect x="80" y="40" width="5" height="5"/>
    <rect x="90" y="40" width="5" height="5"/>
    <rect x="100" y="40" width="5" height="5"/>
    
    <!-- Row 2 -->
    <rect x="85" y="50" width="5" height="5"/>
    <rect x="95" y="50" width="5" height="5"/>
    <rect x="105" y="50" width="5" height="5"/>
    <rect x="115" y="50" width="5" height="5"/>
    
    <!-- Row 3 -->
    <rect x="80" y="60" width="5" height="5"/>
    <rect x="90" y="60" width="5" height="5"/>
    <rect x="110" y="60" width="5" height="5"/>
    
    <!-- Center data -->
    <rect x="80" y="80" width="40" height="40" fill="white"/>
    <text x="100" y="105" font-family="Arial" font-size="12" text-anchor="middle" fill="black">PIX</text>
    
    <!-- More data rows -->
    <rect x="40" y="80" width="5" height="5"/>
    <rect x="50" y="80" width="5" height="5"/>
    <rect x="60" y="80" width="5" height="5"/>
    <rect x="130" y="80" width="5" height="5"/>
    <rect x="140" y="80" width="5" height="5"/>
    <rect x="150" y="80" width="5" height="5"/>
    
    <rect x="40" y="90" width="5" height="5"/>
    <rect x="60" y="90" width="5" height="5"/>
    <rect x="130" y="90" width="5" height="5"/>
    <rect x="150" y="90" width="5" height="5"/>
    
    <rect x="40" y="100" width="5" height="5"/>
    <rect x="50" y="100" width="5" height="5"/>
    <rect x="60" y="100" width="5" height="5"/>
    <rect x="130" y="100" width="5" height="5"/>
    <rect x="140" y="100" width="5" height="5"/>
    <rect x="150" y="100" width="5" height="5"/>
    
    <!-- Bottom section -->
    <rect x="85" y="130" width="5" height="5"/>
    <rect x="95" y="130" width="5" height="5"/>
    <rect x="105" y="130" width="5" height="5"/>
    <rect x="115" y="130" width="5" height="5"/>
    
    <rect x="80" y="140" width="5" height="5"/>
    <rect x="90" y="140" width="5" height="5"/>
    <rect x="100" y="140" width="5" height="5"/>
    <rect x="110" y="140" width="5" height="5"/>
    
    <rect x="85" y="150" width="5" height="5"/>
    <rect x="95" y="150" width="5" height="5"/>
    <rect x="105" y="150" width="5" height="5"/>
  </g>
</svg>